<?xml version="1.0" encoding="UTF-8" standalone="no"?>
<!DOCTYPE svg PUBLIC "-//W3C//DTD SVG 1.1//EN" "http://www.w3.org/Graphics/SVG/1.1/DTD/svg11.dtd">
<svg width="100%" height="100%" viewBox="0 0 800 800" version="1.1" xmlns="http://www.w3.org/2000/svg" xmlns:xlink="http://www.w3.org/1999/xlink" xml:space="preserve" xmlns:serif="http://www.serif.com/" style="fill-rule:evenodd;clip-rule:evenodd;stroke-linejoin:round;stroke-miterlimit:2;">
    <path d="M800,96L800,704C800,756.984 756.984,800 704,800L96,800C43.016,800 0,756.984 0,704L0,96C0,43.016 43.016,0 96,0L704,0C756.984,0 800,43.016 800,96ZM152.333,353.563L152.333,632.188L647.667,632.188L647.667,353.563L492.875,353.563L492.875,477.396L307.125,477.396L307.125,353.563L152.333,353.563ZM492.875,167.813L307.125,167.813L307.125,291.646L492.875,291.646L492.875,167.813Z"/>
</svg>
